<svg xmlns="http://www.w3.org/2000/svg" viewBox="0 0 512 512" style="height: 512px; width: 512px;"><defs><linearGradient x1="0" x2="0" y1="0" y2="1" id="delapouite-ermine-gradient-1"><stop offset="0%" stop-color="#fff" stop-opacity="1"></stop><stop offset="100%" stop-color="#9b9b9b" stop-opacity="0.025"></stop></linearGradient></defs><g class="" transform="translate(0,0)" style=""><path d="M256 24l-32 64 32 48 32-48-32-64zm-64 96l-64 32 64 32 48-32-48-32zm128 0l-48 32 48 32 64-32-64-32zm-64 32c-32 128-64 192-128 256 16 0 48 0 64-16 0 16-16 48-32 64 16 0 48 0 64-16 16 16 16 16 32 48 16-32 16-32 32-48 16.847 12.064 48 16 64 16-16-16-32-48-32-64 16 16 48 16 64 16-64-64-96-128-128-256z" fill="url(#delapouite-ermine-gradient-1)" stroke="#ccc" stroke-opacity="1" stroke-width="3"></path></g></svg>